<svg width="29" height="28" viewBox="0 0 29 28" fill="none" xmlns="http://www.w3.org/2000/svg">
<path fill-rule="evenodd" clip-rule="evenodd" d="M14.5 3.9C8.92193 3.9 4.40001 8.42192 4.40001 14C4.40001 19.5781 8.92193 24.1 14.5 24.1C20.0781 24.1 24.6 19.5781 24.6 14C24.6 8.42192 20.0781 3.9 14.5 3.9ZM2.60001 14C2.60001 7.42781 7.92782 2.1 14.5 2.1C21.0722 2.1 26.4 7.42781 26.4 14C26.4 20.5722 21.0722 25.9 14.5 25.9C7.92782 25.9 2.60001 20.5722 2.60001 14ZM14.5 8.6C14.9971 8.6 15.4 9.00294 15.4 9.5V13.1H19C19.4971 13.1 19.9 13.5029 19.9 14C19.9 14.4971 19.4971 14.9 19 14.9H15.4V18.5C15.4 18.9971 14.9971 19.4 14.5 19.4C14.0029 19.4 13.6 18.9971 13.6 18.5V14.9H10C9.50295 14.9 9.10001 14.4971 9.10001 14C9.10001 13.5029 9.50295 13.1 10 13.1H13.6V9.5C13.6 9.00294 14.0029 8.6 14.5 8.6Z" fill="#007AFF"/>
</svg>
